<svg width="72" height="41" viewBox="0 0 72 41" fill="none" xmlns="http://www.w3.org/2000/svg">
<g clip-path="url(#clip0_69_287)">
<path d="M-52 62C-50.5346 69.967 -49.2542 77.9624 -47.7889 85.9293C-43.1937 92.6016 -38.4419 99.1602 -33.8467 105.832C-27.1744 110.428 -20.6159 115.179 -13.9436 119.775C-5.9766 121.24 2.01881 122.52 9.98577 123.986C17.9527 122.52 25.9481 121.24 33.9151 119.775C40.5874 115.179 47.1459 110.428 53.8183 105.832C58.4135 99.1602 63.1652 92.6016 67.7604 85.9293C69.2258 77.9624 70.5062 69.967 71.9715 62C70.5062 54.033 69.2258 46.0376 67.7604 38.0707C63.1652 31.3983 58.4135 24.8398 53.8183 18.1675C47.1459 13.5723 40.5874 8.82056 33.9151 4.22533C25.9624 2.74575 17.967 1.46535 10 0C2.03304 1.46535 -5.96237 2.74575 -13.9293 4.21111C-20.6017 8.80633 -27.1602 13.5581 -33.8325 18.1533C-38.4277 24.8256 -43.1794 31.3841 -47.7747 38.0564C-49.2542 46.0234 -50.5346 54.033 -52 62ZM-41.9417 83.5108C-43.2506 76.3547 -44.4172 69.156 -45.7118 62C-44.4172 54.8297 -43.2506 47.6452 -41.9417 40.4892C-37.8017 34.4998 -33.548 28.5957 -29.3938 22.6062C-23.4043 18.4663 -17.5002 14.1983 -11.5108 10.0583C-4.35476 8.74943 2.84396 7.58284 10 6.28821C17.1703 7.58284 24.3547 8.74943 31.5108 10.0583C37.5002 14.1983 43.4043 18.452 49.3937 22.6062C53.5337 28.5957 57.8017 34.4998 61.9417 40.4892C63.2506 47.6452 64.4172 54.844 65.7118 62C64.4029 69.156 63.2363 76.3547 61.9275 83.5108C57.7875 89.5002 53.5337 95.4043 49.3795 101.394C43.3901 105.534 37.486 109.802 31.4966 113.942C24.3405 115.251 17.1418 116.417 9.98577 117.712C2.81551 116.417 -4.36898 115.251 -11.525 113.942C-17.5145 109.802 -23.4185 105.548 -29.408 101.394C-33.5337 95.4043 -37.8017 89.5002 -41.9417 83.5108Z" fill="white" fill-opacity="0.05"/>
<path d="M-36.7773 62.0001C-35.6961 68.018 -34.7002 74.0501 -33.619 80.068C-30.1192 85.09 -26.5626 90.0551 -23.077 95.0772C-18.055 98.5627 -13.0899 102.134 -8.06785 105.619C-2.04995 106.7 3.98217 107.682 10.0001 108.777C16.018 107.696 22.0501 106.7 28.068 105.619C33.09 102.119 38.0551 98.5627 43.0772 95.0772C46.5627 90.0551 50.1336 85.09 53.6191 80.068C54.7004 74.0501 55.682 68.018 56.7775 62.0001C55.6963 55.9822 54.7004 49.95 53.6191 43.9321C50.1194 38.9101 46.5627 33.945 43.0772 28.923C38.0551 25.4374 33.09 21.8665 28.068 18.381C22.0501 17.2998 16.018 16.3181 10.0001 15.2227C3.98217 16.3039 -2.04995 17.2998 -8.06785 18.381C-13.0899 21.8808 -18.055 25.4374 -23.077 28.923C-26.5626 33.945 -30.1335 38.9101 -33.619 43.9321C-34.7002 49.95 -35.6819 55.9822 -36.7773 62.0001ZM-4.04169 67.8046C-4.34046 65.8697 -4.62499 63.9349 -4.8953 61.9858C-4.62499 60.051 -4.34046 58.1019 -4.04169 56.1671C-2.88933 54.588 -1.72274 53.0088 -0.541927 51.4438C1.02301 50.263 2.58795 49.0964 4.18134 47.9441C6.11618 47.6453 8.05101 47.3608 10.0001 47.0905C11.9349 47.3608 13.884 47.6453 15.8188 47.9441C17.3979 49.0964 18.9771 50.263 20.5421 51.4438C21.7229 53.0088 22.8895 54.5737 24.0418 56.1671C24.3406 58.1019 24.6251 60.0368 24.8954 61.9858C24.6251 63.9207 24.3406 65.8697 24.0418 67.8046C22.8895 69.3837 21.7229 70.9629 20.5421 72.5278C18.9771 73.7086 17.4122 74.8752 15.8188 76.0276C13.884 76.3264 11.9491 76.6109 10.0001 76.8812C8.06524 76.6109 6.11618 76.3264 4.18134 76.0276C2.60218 74.8752 1.02301 73.7086 -0.541927 72.5278C-1.70852 70.9629 -2.87511 69.3837 -4.04169 67.8046ZM-18.4676 63.1809C-18.496 62.9817 -18.4818 62.9959 -18.4533 63.2378C-18.4107 63.5365 -18.4107 63.5081 -18.4676 63.1524C-18.4676 63.1667 -18.4676 63.1667 -18.4676 63.1809ZM-9.29135 82.956C-9.44784 82.8422 -9.43361 82.8422 -9.23444 82.9987C-8.99259 83.1836 -9.02104 83.1694 -9.30557 82.9418L-9.29135 82.956ZM11.1809 90.4535C10.9817 90.4819 10.9959 90.4677 11.2378 90.4392C11.5365 90.3966 11.5081 90.3966 11.1524 90.4535C11.1667 90.4535 11.1667 90.4535 11.1809 90.4535ZM30.956 81.2915C30.8422 81.448 30.8422 81.4337 30.9987 81.2346C31.1836 80.9927 31.1694 81.0212 30.9418 81.3057L30.956 81.2915ZM38.4535 60.8192C38.4819 61.0184 38.4819 61.0042 38.4392 60.7623C38.3966 60.4636 38.3966 60.492 38.4535 60.8477C38.4535 60.8335 38.4535 60.8192 38.4535 60.8192ZM29.2915 41.0441C29.448 41.1579 29.4337 41.1579 29.2346 41.0014C28.9927 40.8165 29.0212 40.8307 29.3057 41.0584C29.3057 41.0441 29.2915 41.0441 29.2915 41.0441ZM8.81925 33.5324C9.01842 33.504 9.0042 33.5182 8.74812 33.5467C8.44936 33.5893 8.47781 33.5893 8.83347 33.5324H8.81925ZM-10.9559 42.7087C-10.8421 42.5522 -10.8421 42.5664 -10.9986 42.7656C-11.1835 43.0074 -11.1693 42.979 -10.9416 42.6944C-10.9559 42.6944 -10.9559 42.7087 -10.9559 42.7087ZM-18.4676 60.8477C-18.4249 60.492 -18.4107 60.4494 -18.4533 60.7623C-18.4818 61.0042 -18.4818 61.0184 -18.4676 60.8192C-18.4676 60.8192 -18.4676 60.8335 -18.4676 60.8477ZM-10.9416 81.3057C-11.1693 81.0212 -11.1835 80.9927 -10.9986 81.2346C-10.8421 81.4337 -10.8421 81.448 -10.9559 81.2915C-10.9559 81.2915 -10.9559 81.3057 -10.9416 81.3057ZM8.8477 90.4535C8.49203 90.4108 8.44935 90.3966 8.76234 90.4392C9.00419 90.4677 9.01842 90.4677 8.83347 90.4535C8.81924 90.4535 8.83348 90.4535 8.8477 90.4535ZM29.3057 82.9418C29.0212 83.1694 28.9927 83.1836 29.2346 82.9987C29.4337 82.8422 29.448 82.8422 29.2915 82.956L29.3057 82.9418ZM38.4535 63.1524C38.4108 63.5081 38.3966 63.5508 38.4392 63.2378C38.4677 62.9959 38.4677 62.9817 38.4535 63.1809C38.4535 63.1667 38.4535 63.1667 38.4535 63.1524ZM30.9418 42.6944C31.1694 42.979 31.1836 43.0074 30.9987 42.7656C30.8422 42.5664 30.8422 42.5522 30.956 42.7087L30.9418 42.6944ZM11.1524 33.5324C11.5081 33.5751 11.5508 33.5893 11.2378 33.5467C10.9959 33.5182 10.9817 33.5182 11.1809 33.5324C11.1667 33.5324 11.1667 33.5324 11.1524 33.5324ZM-9.30557 41.0584C-9.02104 40.8307 -8.99259 40.8165 -9.23444 41.0014C-9.43361 41.1579 -9.44784 41.1579 -9.29135 41.0441C-9.29135 41.0441 -9.30557 41.0441 -9.30557 41.0584ZM-18.3253 62.0001C-18.3964 62.185 -18.4391 62.3842 -18.4676 62.5976C-18.5103 62.811 -18.496 63.0244 -18.4533 63.2378C-18.4533 63.4085 -18.4107 63.565 -18.3395 63.7215C-18.1688 64.0914 -18.055 64.3759 -17.7562 64.6605C-17.0876 65.3149 -16.2198 65.3718 -15.3377 65.3007C-13.1326 65.0873 -11.0555 64.2906 -8.99259 63.5508C-8.75073 65.2864 -8.49465 67.0221 -8.23857 68.7578C-13.5451 69.5687 -21.5548 70.2373 -22.323 63.6788C-22.3941 63.0813 -22.3941 62.5265 -22.323 62.0143C-22.3941 61.5021 -22.3941 60.9473 -22.323 60.3498C-21.5548 53.7913 -13.5451 54.4599 -8.23857 55.2708C-8.50888 57.0065 -8.75073 58.7421 -8.99259 60.4778C-11.0697 59.738 -13.1326 58.9413 -15.3377 58.7279C-16.2198 58.6426 -17.0876 58.7137 -17.7562 59.3681C-18.055 59.6527 -18.1688 59.9372 -18.3395 60.3071C-18.4107 60.4636 -18.4533 60.6201 -18.4533 60.7908C-18.496 61.0042 -18.5103 61.2176 -18.4676 61.431C-18.4391 61.6159 -18.3964 61.8151 -18.3253 62.0001ZM-10.0311 41.9689C-10.2161 42.0542 -10.3868 42.1538 -10.5575 42.2961C-10.7425 42.4099 -10.8847 42.5664 -10.9986 42.7513C-11.1124 42.8794 -11.212 43.0074 -11.2546 43.1639C-11.3827 43.548 -11.5107 43.8183 -11.5107 44.2451C-11.4965 45.1699 -10.9274 45.8385 -10.2445 46.4076C-8.53733 47.816 -6.50292 48.7123 -4.5254 49.6655C-5.57818 51.0597 -6.63095 52.4682 -7.6695 53.8766C-11.9944 50.7041 -18.1261 45.5113 -14.0431 40.3186C-13.6732 39.8491 -13.2748 39.465 -12.8622 39.152C-12.5493 38.7394 -12.1651 38.3411 -11.6957 37.9712C-6.51714 33.8739 -1.32439 40.0198 1.86239 44.3447C0.453945 45.3833 -0.954498 46.4218 -2.34871 47.4888C-3.28768 45.4971 -4.18396 43.4769 -5.60663 41.7697C-6.1757 41.0868 -6.84435 40.5177 -7.76909 40.5035C-8.18167 40.5035 -8.4662 40.6173 -8.85032 40.7596C-9.00681 40.8165 -9.14908 40.9019 -9.26289 41.0157C-9.44784 41.1295 -9.59011 41.2718 -9.71815 41.4567C-9.84619 41.6132 -9.94578 41.7839 -10.0311 41.9689ZM10.0001 33.6747C9.81512 33.6036 9.61594 33.5609 9.40254 33.5324C9.18914 33.4897 8.97574 33.504 8.76234 33.5467C8.59162 33.5467 8.43513 33.5893 8.27863 33.6605C7.90874 33.8312 7.6242 33.945 7.33967 34.2438C6.68524 34.9124 6.62833 35.7802 6.69947 36.6623C6.91287 38.8674 7.70957 40.9445 8.44936 43.0074C6.7137 43.2493 4.97804 43.5054 3.24238 43.7614C2.43146 38.4549 1.7628 30.4452 8.32132 29.677C8.91884 29.6059 9.47367 29.6059 9.98584 29.677C10.498 29.6059 11.0528 29.6059 11.6504 29.677C18.2089 30.4452 17.5402 38.4549 16.7293 43.7614C14.9936 43.4911 13.258 43.2493 11.5223 43.0074C12.2621 40.9303 13.0588 38.8674 13.2722 36.6623C13.3576 35.7802 13.2864 34.9124 12.632 34.2438C12.3475 33.945 12.0629 33.8312 11.693 33.6605C11.5365 33.5893 11.3801 33.5467 11.2093 33.5467C10.9959 33.504 10.7825 33.4897 10.5691 33.5324C10.3842 33.5609 10.185 33.6036 10.0001 33.6747ZM30.0313 41.9689C29.9459 41.7839 29.8463 41.6132 29.7041 41.4425C29.5902 41.2575 29.4337 41.1153 29.2488 41.0014C29.1208 40.8876 28.9927 40.788 28.8362 40.7454C28.4521 40.6173 28.1818 40.4893 27.755 40.4893C26.8303 40.5035 26.1616 41.0726 25.5925 41.7555C24.1841 43.4627 23.2878 45.4971 22.3346 47.4746C20.9404 46.4218 19.532 45.369 18.1235 44.3305C21.2961 40.0056 26.4888 33.8739 31.6816 37.9569C32.151 38.3268 32.5352 38.7252 32.8482 39.1378C33.2607 39.4507 33.6591 39.8349 34.029 40.3043C38.1263 45.4829 31.9803 50.6756 27.6554 53.8624C26.6169 52.4539 25.5641 51.0455 24.5113 49.6513C26.503 48.7123 28.5232 47.816 30.2304 46.3934C30.9133 45.8243 31.4824 45.1699 31.4966 44.2309C31.4966 43.8183 31.3828 43.5338 31.2405 43.1497C31.1836 42.9932 31.0983 42.8509 30.9845 42.7371C30.8706 42.5522 30.7141 42.4099 30.5434 42.2819C30.3727 42.1538 30.2162 42.0542 30.0313 41.9689ZM38.3254 62.0001C38.3966 61.8151 38.4392 61.6159 38.4677 61.4025C38.5104 61.1891 38.4962 60.9757 38.4535 60.7623C38.4535 60.5916 38.4108 60.4351 38.3397 60.2786C38.1689 59.9087 38.0551 59.6242 37.7564 59.3397C37.0877 58.6852 36.2199 58.6283 35.3378 58.6995C33.1327 58.9129 31.0556 59.7096 28.9927 60.4494C28.7509 58.7137 28.4948 56.978 28.2387 55.2424C33.5453 54.4315 41.5549 53.7628 42.3231 60.3213C42.3943 60.9188 42.3943 61.4737 42.3231 61.9858C42.3943 62.498 42.3943 63.0528 42.3231 63.6504C41.5549 70.2089 33.5453 69.5402 28.2387 68.7293C28.509 66.9936 28.7509 65.258 28.9927 63.5223C31.0698 64.2621 33.1327 65.0588 35.3378 65.2722C36.2199 65.3576 37.0877 65.2864 37.7564 64.632C38.0551 64.3475 38.1689 64.0629 38.3397 63.693C38.4108 63.5365 38.4535 63.3801 38.4535 63.2093C38.4962 62.9959 38.5104 62.7825 38.4677 62.5691C38.4392 62.3842 38.3966 62.185 38.3254 62.0001ZM30.0313 82.0313C30.2162 81.9459 30.3869 81.8463 30.5577 81.7041C30.7426 81.5902 30.8849 81.4337 30.9987 81.2488C31.1125 81.1208 31.2121 80.9927 31.2548 80.8362C31.3828 80.4521 31.5108 80.1818 31.5108 79.755C31.4966 78.8303 30.9276 78.1616 30.2447 77.5925C28.5375 76.1841 26.503 75.2878 24.5255 74.3346C25.5783 72.9404 26.6311 71.532 27.6696 70.1235C31.9946 73.2961 38.1263 78.4888 34.0432 83.6816C33.6733 84.151 33.275 84.5352 32.8624 84.8482C32.5494 85.2607 32.1653 85.6591 31.6958 86.029C26.5173 90.1263 21.3245 83.9803 18.1377 79.6554C19.5462 78.6169 20.9546 77.5783 22.3488 76.5113C23.2878 78.503 24.1841 80.5232 25.6068 82.2304C26.1758 82.9133 26.8445 83.4824 27.7692 83.4966C28.1818 83.4966 28.4663 83.3828 28.8505 83.2405C29.0069 83.1836 29.1492 83.0983 29.263 82.9845C29.448 82.8706 29.5902 82.7141 29.7183 82.5434C29.8321 82.3727 29.9459 82.2162 30.0313 82.0313ZM10.0001 90.3254C10.185 90.3966 10.3842 90.4392 10.5976 90.4677C10.811 90.5104 11.0244 90.4962 11.2378 90.4535C11.4085 90.4535 11.565 90.4108 11.7215 90.3397C12.0914 90.1689 12.3759 90.0551 12.6605 89.7564C13.3149 89.0877 13.3718 88.2199 13.3007 87.3378C13.0873 85.1327 12.2906 83.0556 11.5508 80.9927C13.2864 80.7509 15.0221 80.4948 16.7578 80.2387C17.5687 85.5453 18.2373 93.5549 11.6788 94.3231C11.0813 94.3943 10.5265 94.3943 10.0143 94.3231C9.50213 94.3943 8.94728 94.3943 8.34977 94.3231C1.79125 93.5549 2.45991 85.5453 3.27083 80.2387C5.00649 80.509 6.74215 80.7509 8.47781 80.9927C7.73801 83.0698 6.94132 85.1327 6.72792 87.3378C6.64256 88.2199 6.7137 89.0877 7.36812 89.7564C7.65266 90.0551 7.93719 90.1689 8.30709 90.3397C8.46358 90.4108 8.62008 90.4535 8.79079 90.4535C9.0042 90.4962 9.2176 90.5104 9.431 90.4677C9.61594 90.4392 9.81512 90.3966 10.0001 90.3254ZM-10.0311 82.0313C-9.94578 82.2162 -9.84619 82.3869 -9.70392 82.5577C-9.59011 82.7426 -9.43362 82.8849 -9.24867 82.9987C-9.12063 83.1125 -8.99259 83.2121 -8.83609 83.2548C-8.45197 83.3828 -8.18166 83.5108 -7.75486 83.5108C-6.83013 83.4966 -6.16147 82.9276 -5.59241 82.2447C-4.18396 80.5375 -3.28768 78.503 -2.33449 76.5255C-0.940273 77.5783 0.46817 78.6311 1.87661 79.6696C-1.29594 83.9946 -6.48869 90.1263 -11.6814 86.0432C-12.1509 85.6733 -12.535 85.275 -12.848 84.8624C-13.2606 84.5494 -13.6589 84.1653 -14.0288 83.6958C-18.1261 78.5173 -11.9802 73.3245 -7.65528 70.1377C-6.61673 71.5462 -5.56395 72.9546 -4.51117 74.3488C-6.50291 75.2878 -8.52311 76.1841 -10.2303 77.6068C-10.9132 78.1758 -11.4823 78.8445 -11.4965 79.7692C-11.4965 80.1818 -11.3827 80.4663 -11.2404 80.8505C-11.1835 81.0069 -11.0981 81.1492 -10.9843 81.263C-10.8705 81.448 -10.714 81.5902 -10.5433 81.7183C-10.3868 81.8321 -10.2161 81.9459 -10.0311 82.0313ZM-27.5727 62.0001C-27.6723 62.8537 -27.6438 63.7784 -27.4873 64.7885C-26.4772 70.906 -21.1991 72.5421 -15.6222 72.6132C-19.5203 76.6109 -22.0954 81.4907 -18.4818 86.5411C-17.8843 87.3663 -17.2441 88.0349 -16.5754 88.5755C-16.049 89.2442 -15.3662 89.8844 -14.541 90.4819C-9.49052 94.0955 -4.61076 91.5205 -0.61306 87.6224C-0.541927 93.1992 1.09414 98.4773 7.21163 99.4874C8.22173 99.6582 9.14647 99.6724 10.0001 99.5728C10.8537 99.6724 11.7784 99.6439 12.7885 99.4874C18.906 98.4773 20.5421 93.1992 20.6132 87.6224C24.6109 91.5205 29.4907 94.0955 34.5411 90.4819C35.3663 89.8844 36.0349 89.2442 36.5755 88.5755C37.2442 88.0492 37.8844 87.3663 38.4819 86.5411C42.0955 81.4907 39.5205 76.6109 35.6224 72.6132C41.1992 72.5421 46.4773 70.906 47.4874 64.7885C47.6582 63.7784 47.6724 62.8537 47.5728 62.0001C47.6724 61.1465 47.6439 60.2217 47.4874 59.2116C46.4773 53.0941 41.1992 51.4581 35.6224 51.3869C39.5205 47.3892 42.0955 42.5095 38.4819 37.459C37.8844 36.6338 37.2442 35.9652 36.5755 35.4246C36.0492 34.7559 35.3663 34.1157 34.5411 33.5182C29.4907 29.9046 24.6109 32.4797 20.6132 36.3778C20.5421 30.8009 18.906 25.5228 12.7885 24.5127C11.7784 24.342 10.8537 24.3277 10.0001 24.4273C9.14647 24.3277 8.22173 24.3562 7.21163 24.5127C1.09414 25.5228 -0.541927 30.8009 -0.61306 36.3778C-4.61076 32.4797 -9.49052 29.9046 -14.541 33.5182C-15.3662 34.1157 -16.0348 34.7559 -16.5754 35.4246C-17.2441 35.951 -17.8843 36.6338 -18.4818 37.459C-22.0954 42.5095 -19.5203 47.3892 -15.6222 51.3869C-21.1991 51.4581 -26.4772 53.0941 -27.4873 59.2116C-27.6438 60.2217 -27.6723 61.1465 -27.5727 62.0001ZM-29.9628 78.5457C-30.9444 73.04 -31.8549 67.5058 -32.8365 62.0001C-31.8549 56.4801 -30.9444 50.9601 -29.9628 45.4544C-26.7617 40.8592 -23.5038 36.3066 -20.3028 31.7114C-15.7076 28.5104 -11.155 25.2525 -6.55982 22.0515C-1.05408 21.0698 4.4801 20.1593 9.98584 19.1777C15.5058 20.1593 21.0258 21.0698 26.5315 22.0515C31.1267 25.2525 35.6793 28.5104 40.2745 31.7114C43.4755 36.3066 46.7334 40.8592 49.9344 45.4544C50.9161 50.9601 51.8266 56.4943 52.8082 62.0001C51.8266 67.5058 50.9161 73.04 49.9344 78.5457C46.7334 83.1409 43.4755 87.6935 40.2745 92.2887C35.6793 95.4897 31.1267 98.7477 26.5315 101.949C21.0258 102.93 15.4916 103.841 9.98584 104.822C4.46587 103.841 -1.05408 102.93 -6.55982 101.949C-11.155 98.7477 -15.7076 95.4897 -20.3028 92.2887C-23.4896 87.6935 -26.7617 83.1409 -29.9628 78.5457Z" fill="white" fill-opacity="0.05"/>
</g>
<defs>
<clipPath id="clip0_69_287">
<rect width="124" height="124" fill="white" transform="translate(-52)"/>
</clipPath>
</defs>
</svg>
